<svg xmlns="http://www.w3.org/2000/svg" viewBox="0 0 540.37 163.74"><defs><style>.cls-1{font-size:150px;}.cls-1,.cls-2,.cls-5{fill:aqua;}.cls-1,.cls-2{stroke:#29abe2;font-family:Beon-Medium, Beon;font-weight:500;}.cls-1,.cls-2,.cls-4{stroke-miterlimit:10;}.cls-2{font-size:119.23px;}.cls-3{fill:#fff;}.cls-4{fill:none;stroke:#fff;}</style></defs><g id="Layer_1" data-name="Layer 1"><text class="cls-1" transform="translate(5.18 125.74)">XP</text></g><g id="Layer_3" data-name="Layer 3"><text class="cls-2" transform="translate(211.81 127.09) scale(0.88 1)">layer</text></g><g id="Layer_2" data-name="Layer 2"><path class="cls-3" d="M55.72,205.53l8.73,9.52,21,22.84,25.35,27.62,21.83,23.8c3.53,3.84,6.92,7.91,10.63,11.58l.15.17c1.31,1.43,3.43-.7,2.12-2.12l-8.73-9.52-21-22.84L90.46,239l-21.84-23.8c-3.52-3.84-6.91-7.91-10.63-11.58l-.15-.17c-1.31-1.43-3.43.7-2.12,2.12Z" transform="translate(-33.45 -174.26)"/><path class="cls-3" d="M138.33,202.64l-10,10.62-15.9,16.92-3.66,3.9c-1.32,1.41.8,3.53,2.12,2.12l10-10.61,15.89-16.93,3.66-3.9c1.32-1.4-.79-3.53-2.12-2.12Z" transform="translate(-33.45 -174.26)"/><path class="cls-3" d="M85.53,259.28,73.08,272.65l-19.95,21.4-4.56,4.89c-1.31,1.41.8,3.54,2.12,2.12l12.46-13.37,19.95-21.4,4.55-4.89c1.32-1.41-.8-3.53-2.12-2.12Z" transform="translate(-33.45 -174.26)"/><line class="cls-4" x1="0.5" y1="36.17" x2="0.5" y2="36.41"/><path class="cls-3" d="M171.49,204.18v84c0,3.86-.17,7.77,0,11.62a1,1,0,0,1,0,.17,1.5,1.5,0,0,0,3,0V216c0-3.86.17-7.76,0-11.62v-.17a1.5,1.5,0,0,0-3,0Z" transform="translate(-33.45 -174.26)"/><path class="cls-3" d="M186.91,205.68h29.67a3.42,3.42,0,0,0,1,0c-.35.15-1.07-.41-.29,0a39.29,39.29,0,0,1,9.42,6.53c4.53,4.35,7.29,9.78,7.19,16.13a34.59,34.59,0,0,1-.69,7.31,25.44,25.44,0,0,1-7.75,13.57,24.46,24.46,0,0,1-4.14,2.94,19.55,19.55,0,0,1-3.74,1.88,13.83,13.83,0,0,1-3.15,0H186.91a1.5,1.5,0,0,0,0,3h30.15a3.76,3.76,0,0,0,1.32-.18,26.71,26.71,0,0,0,5.31-2.61,27.61,27.61,0,0,0,11.43-14.34,30.15,30.15,0,0,0,1.79-10.72,32.58,32.58,0,0,0-.45-6.16,23,23,0,0,0-4-8.73,36.8,36.8,0,0,0-11.68-10.16,20.78,20.78,0,0,0-2.44-1.25,8.79,8.79,0,0,0-3.2-.21H186.91a1.5,1.5,0,0,0,0,3Z" transform="translate(-33.45 -174.26)"/><path class="cls-3" d="M256,224.48l-.36,76.87a1.25,1.25,0,0,0,2.5,0l.36-76.87a1.25,1.25,0,0,0-2.5,0Z" transform="translate(-33.45 -174.26)"/><path class="cls-3" d="M268.4,302.6h29.88a1.25,1.25,0,0,0,0-2.5H268.4a1.25,1.25,0,0,0,0,2.5Z" transform="translate(-33.45 -174.26)"/><path class="cls-3" d="M330.55,238.91,307.15,301c-.56,1.51,1.85,2.16,2.42.66L333,239.57c.56-1.5-1.85-2.16-2.42-.66Z" transform="translate(-33.45 -174.26)"/><path class="cls-3" d="M328.52,275.41l17.28.36a1.25,1.25,0,0,0,0-2.5l-17.28-.36a1.25,1.25,0,0,0,0,2.5Z" transform="translate(-33.45 -174.26)"/><path class="cls-3" d="M336,225.17l29.52,76.51c.58,1.49,3,.84,2.42-.66l-29.52-76.51c-.58-1.49-3-.84-2.42.66Z" transform="translate(-33.45 -174.26)"/><path class="cls-3" d="M405,272.06l.06,29.29a1.25,1.25,0,0,0,2.5,0l-.06-29.29a1.25,1.25,0,0,0-2.5,0Z" transform="translate(-33.45 -174.26)"/><path class="cls-3" d="M376.7,225.59l28.73,36.22c1,1.26,2.75-.52,1.76-1.76l-28.72-36.23c-1-1.26-2.76.52-1.77,1.77Z" transform="translate(-33.45 -174.26)"/><path class="cls-3" d="M417.77,248.33l18.14-22.28c1-1.23-.75-3-1.77-1.76L416,246.56c-1,1.24.75,3,1.77,1.77Z" transform="translate(-33.45 -174.26)"/><path class="cls-3" d="M451.83,224.84l.18,76.51a1.25,1.25,0,0,0,2.5,0l-.18-76.51a1.25,1.25,0,0,0-2.5,0Z" transform="translate(-33.45 -174.26)"/><path class="cls-3" d="M461.9,226.09h33.48a1.25,1.25,0,0,0,0-2.5H461.9a1.25,1.25,0,0,0,0,2.5Z" transform="translate(-33.45 -174.26)"/><path class="cls-3" d="M461.9,261.37l27.36.18a1.25,1.25,0,0,0,0-2.5l-27.36-.18a1.25,1.25,0,0,0,0,2.5Z" transform="translate(-33.45 -174.26)"/><path class="cls-3" d="M461.9,302.6h33.48a1.25,1.25,0,0,0,0-2.5H461.9a1.25,1.25,0,0,0,0,2.5Z" transform="translate(-33.45 -174.26)"/><path class="cls-3" d="M515.91,224.84l.18,76.51a1.25,1.25,0,0,0,2.5,0l-.18-76.51a1.25,1.25,0,0,0-2.5,0Z" transform="translate(-33.45 -174.26)"/><path class="cls-3" d="M529.72,226.09c6,0,12.11.15,18.15,0,1.28,0,1.25,0,1.15,0A14.08,14.08,0,0,1,552.1,228c4.6,3.25,7.39,7.51,7.8,13.18.6,8.33-3.6,17.22-12.91,18-5.68.46-11.57,0-17.27,0a1.25,1.25,0,0,0,0,2.5c6.77,0,15,1.37,21.48-.86,8.08-2.77,11.5-10.95,11.21-18.91-.26-7.12-5.14-16.22-12.76-18.21-2.72-.7-6.38,0-9.15,0H529.72a1.25,1.25,0,0,0,0,2.5Z" transform="translate(-33.45 -174.26)"/><path class="cls-3" d="M534.28,271.08l28.8,31.2c1.09,1.19,2.85-.58,1.76-1.76L536,269.32c-1.09-1.19-2.85.58-1.76,1.76Z" transform="translate(-33.45 -174.26)"/><path class="cls-5" d="M189.72,213.66v32.47a1.5,1.5,0,0,0,3,0V213.66a1.5,1.5,0,0,0-3,0Z" transform="translate(-33.45 -174.26)"/><path class="cls-5" d="M190.46,215,216,227.67l3.6,1.79c1.72.86,3.24-1.73,1.51-2.59l-25.57-12.72-3.6-1.78c-1.72-.86-3.24,1.73-1.51,2.59Z" transform="translate(-33.45 -174.26)"/><path class="cls-5" d="M219.63,226.87,194,242.64l-3.57,2.19c-1.64,1-.14,3.61,1.51,2.59l25.61-15.76,3.56-2.2c1.65-1,.14-3.6-1.51-2.59Z" transform="translate(-33.45 -174.26)"/></g></svg>