<svg xmlns="http://www.w3.org/2000/svg" viewBox="0 0 357.56 337.36"><defs><style>.cls-1{font-size:310.02px;stroke:#29abe2;stroke-miterlimit:10;font-family:Beon-Medium, Beon;font-weight:500;}.cls-1,.cls-4{fill:aqua;}.cls-2{fill:#fff;}.cls-3{fill:#f2f2f2;}</style></defs><g id="Layer_1" data-name="Layer 1"><text class="cls-1" transform="translate(0.5 259.36) scale(0.83 1)">XP</text><path class="cls-2" d="M143.54,196.11l4.05,5.32,10.91,14.33L174.69,237,194.44,263l21.63,28.41L237.9,320l20.29,26.65,17.27,22.67,12.32,16.18q2.94,3.86,5.87,7.7l.25.33a3.09,3.09,0,0,0,4.1,1.08c1.27-.74,2.07-2.81,1.08-4.1L295,385.21l-10.91-14.34-16.19-21.25-19.75-25.93-21.63-28.41-21.83-28.67L184.43,240,167.16,217.3l-12.32-16.18L149,193.41l-.25-.33a3.1,3.1,0,0,0-4.1-1.07c-1.27.74-2.07,2.81-1.08,4.1Z" transform="translate(-114.51 -132.68)"/><path class="cls-2" d="M285.72,190.89l-17.09,21.93-27.26,35-6.28,8.07a3.09,3.09,0,0,0,0,4.24c1,1,3.24,1.29,4.24,0l17.09-21.93,27.26-35,6.29-8.06a3.11,3.11,0,0,0,0-4.24c-1-1-3.24-1.29-4.25,0Z" transform="translate(-114.51 -132.68)"/><path class="cls-2" d="M195.15,308l-6.31,8.16-15.16,19.6-18.25,23.6-15.86,20.5-7.71,10-.11.14a3.1,3.1,0,0,0,0,4.24c1,1,3.25,1.29,4.24,0L142.3,386l15.16-19.6,18.26-23.6,15.85-20.5,7.71-10,.11-.15a3.1,3.1,0,0,0,0-4.24c-1-1-3.24-1.29-4.24,0Z" transform="translate(-114.51 -132.68)"/><path class="cls-3" d="M342.48,194V384c0,2.57-.06,5.15,0,7.72,0,.12,0,.23,0,.34,0,3.86,6,3.87,6,0v-190c0-2.57.06-5.15,0-7.72V194c0-3.86-6-3.87-6,0Z" transform="translate(-114.51 -132.68)"/><path class="cls-2" d="M369.36,197h52.7l-1.52-.41c1.21.64,2.36,1.38,3.5,2.13s2.48,1.73,3.68,2.64c-.43-.32-.26-.2.06,0l.52.41,1.16,1c.76.64,1.51,1.29,2.25,2q2.49,2.27,4.75,4.77c.82.92,1.63,1.87,2.4,2.83.1.14.6.77.26.33l.56.75c.4.54.8,1.09,1.18,1.64a53.56,53.56,0,0,1,4.08,6.93q.45.92.87,1.86l.18.41c-.06-.12-.19-.46,0,.1.15.37.3.74.44,1.12.52,1.33,1,2.69,1.36,4.06a43.31,43.31,0,0,1,1.61,8.77c.17,2.15.07,4.28.09,6.43,0,1.61,0,3.21,0,4.82s-.19,3.06-.36,4.59c0,.39-.09.79-.14,1.18,0,.1-.11.87,0,.35s-.05.33-.07.47c-.14,1-.31,2-.49,2.93A69.39,69.39,0,0,1,444.71,272c-.12.28-.23.55-.34.83s.18-.43,0,0c-.05.12-.1.24-.16.36-.26.59-.53,1.19-.81,1.78-.56,1.16-1.15,2.3-1.79,3.42s-1.3,2.19-2,3.25q-.54.81-1.11,1.59l-.59.79c-.2.27,0,0,0,0-.14.19-.29.37-.44.56a47.16,47.16,0,0,1-5.74,6,42.33,42.33,0,0,1-7,5c-1.36.78-2.76,1.48-4.19,2.13l1.52-.41h-52.7c-3.86,0-3.87,6,0,6h45.33c2.35,0,4.72.08,7.07,0,2.06-.06,4.23-1.53,6-2.54a51.64,51.64,0,0,0,8.14-5.8c8.48-7.37,14-17.61,17-28.36a75.43,75.43,0,0,0,2.7-20.66,89.18,89.18,0,0,0-.57-11.44,52.34,52.34,0,0,0-6.14-17.83,67.79,67.79,0,0,0-19.77-21.58,44.54,44.54,0,0,0-5.29-3.41c-1.42-.74-3.06-.53-4.62-.53H369.36c-3.86,0-3.87,6,0,6Z" transform="translate(-114.51 -132.68)"/></g><g id="Layer_2" data-name="Layer 2"><path class="cls-4" d="M370.61,208.48V286.6a1.5,1.5,0,0,0,3,0V208.48a1.5,1.5,0,0,0-3,0Z" transform="translate(-114.51 -132.68)"/><line class="cls-4" x1="257.6" y1="75.8" x2="323.94" y2="110.7"/><path class="cls-4" d="M371.36,209.78l22.5,11.84,35.61,18.74,8.22,4.32c1.71.9,3.23-1.69,1.52-2.59L416.7,230.25l-35.61-18.74-8.22-4.33c-1.71-.89-3.23,1.69-1.51,2.6Z" transform="translate(-114.51 -132.68)"/><line class="cls-4" x1="323.94" y1="110.7" x2="257.6" y2="153.92"/><path class="cls-4" d="M437.69,242.09l-22.47,14.64L379.47,280l-8.11,5.28c-1.62,1.05-.11,3.65,1.51,2.6l22.47-14.64L431.09,250l8.12-5.29c1.61-1.05.11-3.65-1.52-2.59Z" transform="translate(-114.51 -132.68)"/></g></svg>